<svg width="51" height="50" viewBox="0 0 51 50" fill="none" xmlns="http://www.w3.org/2000/svg">
<g clip-path="url(#clip0_171_355)">
<path d="M9.78848 22.3949C9.78529 22.3901 3.89486 24.5378 0.666537 20.2958C0.666537 20.2958 3.67076 17.3689 7.25797 18.8411C6.79701 14.9931 10.4177 12.8773 10.4177 12.8773C13.6444 17.1209 9.78848 22.3949 9.78848 22.3949Z" fill="white"/>
<path d="M43.087 11.5823C43.0702 11.847 43.0295 12.2306 42.9282 12.6796C42.7376 13.5816 42.354 14.7596 41.8373 15.8872C41.456 16.7175 41.0286 17.5277 40.5684 18.2128C40.5931 18.2303 40.6163 18.2519 40.6402 18.2686C40.7813 18.3539 40.8938 18.4233 40.9241 18.4465C42.5303 19.6467 43.2895 21.3757 43.3669 23.1669C44.1931 23.1494 45.1055 23.2267 46.0098 23.3543C47.238 23.5282 48.4375 23.8416 49.2996 24.1686C49.7318 24.3257 50.0771 24.498 50.3092 24.628C50.5365 24.7651 50.6665 24.8441 50.6665 24.8441C50.6665 24.8441 50.5245 24.7939 50.2757 24.7077C50.0245 24.6312 49.6632 24.5363 49.2198 24.4741C48.337 24.3385 47.1431 24.2826 45.9652 24.3632C44.9683 24.4278 43.9857 24.5737 43.2504 24.7787C42.8086 27.2645 41.149 29.6052 38.6767 30.5407C37.2037 31.0974 35.7251 31.6437 34.2138 32.0863C33.4817 32.3008 32.9179 34.2842 32.8325 34.9151C32.6324 36.4064 33.2839 37.3913 34.111 38.5262C34.2816 38.7216 34.3773 38.8333 34.3773 38.8333C34.3773 38.8333 29.7438 38.5103 29.4391 32.9859C28.4757 33.0585 27.5076 33.0736 26.5737 33.0361C20.1194 32.7746 13.3725 29.2846 10.0389 23.6231C10.0357 23.6175 10.0341 23.6103 10.0301 23.6032C10.0899 23.6454 10.1505 23.6893 10.2047 23.7292C10.6115 23.974 14.6262 28.0573 24.3638 28.1346C32.1722 28.1968 36.7922 23.5234 36.7922 23.5234C36.7922 23.5234 31.2838 27.5836 24.3199 26.8961C17.6846 26.2405 13.4323 23.9246 12.7895 23.5242C14.6596 24.3951 16.6279 24.9717 18.8442 24.998C20.8228 25.0211 22.5183 24.6144 24.0599 23.9206C22.9099 22.2801 22.3604 19.6332 23.39 17.8013C23.1866 18.1649 24.5544 20.205 24.8184 20.528C25.4627 21.3159 26.3879 21.8829 27.4174 21.8654C28.5539 21.0001 29.5939 19.9426 30.7845 18.984C33.7146 16.6225 35.9245 16.3075 39.1656 17.4256C39.7302 16.9176 40.3754 16.1791 40.9616 15.3832C41.665 14.4358 42.2623 13.4006 42.6244 12.5832C42.8118 12.1756 42.9259 11.8199 42.9976 11.5679C43.059 11.3127 43.0941 11.166 43.0941 11.166C43.0941 11.166 43.0933 11.3167 43.087 11.5823Z" fill="white"/>
</g>
<defs>
<clipPath id="clip0_171_355">
<rect width="50" height="50" fill="white" transform="matrix(4.37114e-08 -1 -1 -4.37114e-08 50.6665 50)"/>
</clipPath>
</defs>
</svg>
